# xmcd CD database file
#
# Track frame offsets:
#	150
#	15045
#	32605
#	49735
#	67927
#	85010
#	101030
#	117702
#	132585
#	151230
#	173365
#	191835
#	209385
#	226230
#	242147
#	259147
#	277680
#	296825
#
# Disc length: 4202 seconds
#
# Revision: 0
# Processed by: cddbd v1.5.1PL2 Copyright (c) Steve Scherf et al.
# Submitted via: CDex 1.51
#
DISCID=f1106812
DTITLE=Various Artist - MAHARAJA NIGHT HOUSE REVOLUTION VOL.15
DYEAR=1996
DGENRE=House
TTITLE0=SCATMAN (RADIO EDIT) - S.BAND
TTITLE1=DO YA WANNA PARTY (7" EURO RADIO EDIT) - WAND &STORM HQ feat. VIKKI S.
TTITLE2=ANYTHING (RADIO EDIT) - SONIC SURFERS
TTITLE3=IN THE NAME OF LOVE (NAME MIX) - AQUA
TTITLE4=GIVE ME LOVE (CLUB MIX) - OPEN BILLET
TTITLE5=SIANORA BABY - QFX
TTITLE6=MY IDEA OF HEAVEN (7" RADIO EDIT) - HAZELL DEAN
TTITLE7=STUCK ON U (100% RADIO MIX) - PJ and DUNCAN
TTITLE8=MEMORIES (EUROPEAN MIX) - QUASIMODO
TTITLE9=I WANT TO LOVE (ARIGINAL MIX) - WHIGFIELD
TTITLE10=IF YOU WANNA PARTY (AIAX MIX) - MOLELLA feat. THE OUTHERE BROTHERS
TTITLE11=ZOMBIE (RAVE MIX) - ORORO
TTITLE12=LET ME BE (F.M.CUT) - TALEESA
TTITLE13=RUSSIANS (RADIO EDIT) - PIROPO
TTITLE14=LOLLY POP (POP VERSION) - THE CAVE GANG
TTITLE15=IMAGINATION (RADIO MIX) - PHARAOH
TTITLE16=LA CAMPANA (A TEAM REMIX) - DJ DERO
TTITLE17=DON'T YOU LEAVE ME STANDING (RADIO MIX) - S.O.S. feat. ANNALISE
EXTD=YEAR: 1996
EXTT0=
EXTT1=
EXTT2=
EXTT3=
EXTT4=
EXTT5=
EXTT6=
EXTT7=
EXTT8=
EXTT9=
EXTT10=
EXTT11=
EXTT12=
EXTT13=
EXTT14=
EXTT15=
EXTT16=
EXTT17=
PLAYORDER=
